<svg width="650" height="193" viewBox="0 0 650 193" fill="none" xmlns="http://www.w3.org/2000/svg">
<path d="M574.11 0H76.249C40.3734 0 16.1721 36.6647 30.2733 69.6528L70.0272 162.653C77.8956 181.06 95.9844 193 116.002 193H534.838C554.936 193 573.081 180.966 580.899 162.451L620.171 69.4508C634.091 36.488 609.891 0 574.11 0Z" fill="#FF0004"/>
<path d="M541.642 12H107.733C71.6032 12 47.4002 49.1436 61.9937 82.1956L92.4593 151.196C100.458 169.312 118.395 181 138.199 181H511.545C531.43 181 549.425 169.217 557.375 150.99L587.472 81.9901C601.878 48.9616 577.675 12 541.642 12Z" fill="black"/>
<path d="M246.688 75.3125H221.438V71.125C221.438 66.6667 221.146 63.75 220.562 62.375C219.979 61 218.729 60.3125 216.812 60.3125C215.271 60.3125 214.104 60.9167 213.312 62.125C212.562 63.2917 212.188 65.0625 212.188 67.4375C212.188 71.3958 212.979 74.1667 214.562 75.75C216.104 77.3333 220.646 80.4167 228.188 85C234.604 88.875 238.979 91.8542 241.312 93.9375C243.646 95.9792 245.604 98.8958 247.188 102.688C248.812 106.438 249.625 111.125 249.625 116.75C249.625 125.75 247.458 132.812 243.125 137.938C238.792 143.062 232.292 146.229 223.625 147.438V156.938H212V147.125C205.25 146.458 199.354 143.875 194.312 139.375C189.271 134.833 186.75 126.938 186.75 115.688V110.75H212V116.938C212 123.729 212.25 127.958 212.75 129.625C213.292 131.25 214.562 132.062 216.562 132.062C218.271 132.062 219.542 131.5 220.375 130.375C221.208 129.208 221.625 127.5 221.625 125.25C221.625 119.583 221.229 115.542 220.438 113.125C219.646 110.667 216.938 108 212.312 105.125C204.604 100.292 199.354 96.75 196.562 94.5C193.812 92.2083 191.417 89 189.375 84.875C187.375 80.75 186.375 76.0833 186.375 70.875C186.375 63.3333 188.5 57.4167 192.75 53.125C197.042 48.8333 203.458 46.1875 212 45.1875V37.125H223.625V45.1875C231.417 46.1875 237.25 48.8125 241.125 53.0625C245 57.2708 246.938 63.1042 246.938 70.5625C246.938 71.6042 246.854 73.1875 246.688 75.3125ZM314.125 76.4375H289.688V68.9375C289.688 65.4375 289.375 63.2083 288.75 62.25C288.125 61.2917 287.083 60.8125 285.625 60.8125C284.042 60.8125 282.833 61.4583 282 62.75C281.208 64.0417 280.812 66 280.812 68.625C280.812 72 281.271 74.5417 282.188 76.25C283.062 77.9583 285.542 80.0208 289.625 82.4375C301.333 89.3958 308.708 95.1042 311.75 99.5625C314.792 104.021 316.312 111.208 316.312 121.125C316.312 128.333 315.458 133.646 313.75 137.062C312.083 140.479 308.833 143.354 304 145.688C299.167 147.979 293.542 149.125 287.125 149.125C280.083 149.125 274.062 147.792 269.062 145.125C264.104 142.458 260.854 139.062 259.312 134.938C257.771 130.812 257 124.958 257 117.375V110.75H281.438V123.062C281.438 126.854 281.771 129.292 282.438 130.375C283.146 131.458 284.375 132 286.125 132C287.875 132 289.167 131.312 290 129.938C290.875 128.562 291.312 126.521 291.312 123.812C291.312 117.854 290.5 113.958 288.875 112.125C287.208 110.292 283.104 107.229 276.562 102.938C270.021 98.6042 265.688 95.4583 263.562 93.5C261.438 91.5417 259.667 88.8333 258.25 85.375C256.875 81.9167 256.188 77.5 256.188 72.125C256.188 64.375 257.167 58.7083 259.125 55.125C261.125 51.5417 264.333 48.75 268.75 46.75C273.167 44.7083 278.5 43.6875 284.75 43.6875C291.583 43.6875 297.396 44.7917 302.188 47C307.021 49.2083 310.208 52 311.75 55.375C313.333 58.7083 314.125 64.3958 314.125 72.4375V76.4375ZM356.812 45.8125V113.438C356.812 123.562 356.708 130.083 356.5 133C356.292 135.875 355.333 138.479 353.625 140.812C351.958 143.146 349.667 144.771 346.75 145.688C343.875 146.562 339.521 147 333.688 147H320.5V129.312C322.083 129.438 323.229 129.5 323.938 129.5C325.812 129.5 327.292 129.042 328.375 128.125C329.458 127.208 330.083 126.083 330.25 124.75C330.417 123.417 330.5 120.833 330.5 117V45.8125H356.812ZM466 45.8125L454.312 147H421.438C418.438 131.458 415.792 113.792 413.5 94C412.458 102.458 410.021 120.125 406.188 147H373.5L361.75 45.8125H387.312L390 81.125L392.75 115.188C393.708 97.5625 396.125 74.4375 400 45.8125H427.375C427.75 48.7708 428.708 59.8958 430.25 79.1875L433.125 117.625C434.583 93.1667 437.021 69.2292 440.438 45.8125H466Z" fill="white"/>
</svg>
