<svg id="Layer_1" data-name="Layer 1" xmlns="http://www.w3.org/2000/svg" viewBox="0 0 152.05 100"><defs><style>.cls-1{fill:#0c0c23;}.cls-2{fill:#fff;}.cls-3{fill:#fc81cb;}</style></defs><path class="cls-1" d="M152.05,60a28.84,28.84,0,0,1-2.69,12.14,1.46,1.46,0,0,1-.07.19c-9,21.61-34.74,27.4-34.74,27.4-3.94,1-8.78-1-7.54-5.41,0,0,2.25-5-.43-9.26-8-12.82-20.67-.86-34.19,4.06C57.42,94.59,34.58,94,22.85,86,11.47,78.26,0,65.57,0,43.75,0,19,17.56.93,43.43,0,74-1,84.81,20.68,88.42,30.21a3,3,0,0,0,1,1.32,3.13,3.13,0,0,0,3.06.48c20.3-7.68,40.31.69,40.31.69s0,0,0,0A29,29,0,0,1,152.05,60Z"/><path class="cls-2" d="M45.31,10.35c-18.26,0-33.62,13-33.62,33.47S27.05,77.71,45.31,77.71,79.2,64.3,79.2,43.82,63.71,10.35,45.31,10.35Zm0,53.53C34.66,63.88,25.8,56,25.8,43.82a21.37,21.37,0,0,1,.41-4.23,1.71,1.71,0,0,1,3-.74A9.9,9.9,0,0,0,45.13,27.06a1.74,1.74,0,0,1,1.49-2.72C57.27,24.87,65,33.21,65,43.82,65,56,56.1,63.88,45.31,63.88Z"/><path class="cls-3" d="M124.85,39.33C115,33.7,99.92,36.56,92,40.67a1.68,1.68,0,0,0-.88,1.74,33.59,33.59,0,0,1-.33,10.88,35,35,0,0,1-2,6.68,1.72,1.72,0,0,0,1.82,2.33,46.46,46.46,0,0,1,20.58,2.85c.64.24,1,.4,1,.4.7.27,1.37.57,2,.88a1.72,1.72,0,0,0,2.45-1.79C114.69,52.1,120,45.58,125,42.29A1.73,1.73,0,0,0,124.85,39.33Z"/></svg>