<svg width="1920" height="1080" viewBox="0 0 1920 1080" fill="none" xmlns="http://www.w3.org/2000/svg">
<g clip-path="url(#clip0_15_6733)">
<path d="M1478.88 482.905C1454.64 486.399 1424.77 483.556 1402 489.523C1458.87 519.855 1536.65 508.709 1598.42 507.853C1723.98 506.109 1849.83 527.429 1967.82 570.429C1819.79 490.061 1645.59 458.879 1478.88 482.905Z" fill="#120F0E"/>
<path d="M1778.95 480.472C1834.45 491.603 1893.1 491.939 1944.46 515.725C1955.63 520.895 1966.4 527.197 1975.33 535.655C1998.14 557.255 2009.24 592.647 2037.03 605.676L2037.03 539.155C2019.39 538.411 2003.5 527.993 1987.74 519.64C1924.6 486.175 1850.37 482.963 1778.95 480.472Z" fill="#120F0E"/>
<path d="M-62.3387 606.902C80.4414 618.319 223.132 648.566 365.684 634.56C306.651 626.539 247.618 618.518 188.586 610.495C67.9894 594.107 -53.4984 577.698 -175 583.952L-175 617.956C-140.629 602.674 -100.332 603.864 -62.3387 606.902Z" fill="#120F0E"/>
<path d="M-84.519 502.141C-61.5963 505.332 -38.9701 510.654 -17.0421 518.057C19.6724 530.451 54.2865 548.552 91.1804 560.396C111.529 566.927 132.441 571.512 153.349 575.927C280.978 602.871 409.876 623.811 539.471 638.653C577.923 643.057 616.988 647.055 653 661.235C543.611 599.552 415.241 582.679 290.198 571.081C207.919 563.45 123.909 557.229 47.4823 525.811C14.6643 512.318 -16.4492 494.278 -50.6713 484.902C-79.1384 477.103 -121.844 473.298 -145.746 494.103C-111.288 496.86 -99.6818 500.031 -84.519 502.141Z" fill="#120F0E"/>
<path d="M1974.73 708.865C1921.2 712.271 1870.22 711.318 1817.48 710.718C1715.59 709.566 1613.28 707.439 1512.37 692.017C1338.58 665.456 1173.43 600.183 1010 535.39C1107.14 549.421 1204.28 563.452 1301.42 577.485C1284.41 566.463 1270.6 550.577 1262.05 532.205C1427.89 603.201 1612.53 629.719 1791.65 608.263C1644.42 642.761 1490.57 648.761 1341.11 625.837C1422.11 638.261 1499.52 666.482 1582.1 675.337C1665.84 684.315 1750.45 685.123 1834.33 677.587C1858.66 675.402 1882.1 669.87 1905.34 662.489C1916.16 659.05 1930.27 648.588 1942.98 641.498L2036.55 683.846L2029.36 699.741C2012.39 705.846 1992.9 707.708 1974.73 708.865Z" fill="#120F0E"/>
<path d="M213.767 455.72C290.2 487.294 374.529 495.993 457.143 492.296C539.756 488.596 622.328 478.76 702.514 457.274C581.932 476.642 453.027 438.812 327.555 424.208C350.564 414.509 375.34 409.014 400.292 408.076C326.341 389.462 248.819 395.179 172.572 393.719C100.131 392.333 28.0007 384.357 -44.0001 376.197L-31.2941 423.617C88.0649 425.632 208.481 428.999 323.739 459.661C287.083 458.347 250.426 457.033 213.767 455.72Z" fill="#120F0E"/>
<path d="M529.468 528.419C516.376 524.271 496.827 519.606 478.252 514C491.001 536.474 545.959 550.553 569.933 558.327C602.984 569.045 636.951 576.65 670.921 583.791C833.41 617.946 999.214 643.422 1153.01 705.996C1084.51 666.488 1010.41 636.704 933.619 617.812C855.218 598.524 774.461 590.614 695.465 573.92C657.837 565.97 620.66 556.029 583.787 545.13C565.619 539.761 547.525 534.146 529.468 528.419Z" fill="#120F0E"/>
<path d="M716.701 502.354C703.972 497.197 684.847 491.022 666.765 483.985C677.723 507.385 731.416 525.706 754.711 535.325C786.825 548.588 820.095 558.819 853.405 568.587C1012.74 615.309 1176.05 653.636 1324.5 728.012C1259.29 683.283 1187.73 647.811 1112.65 622.989C1035.99 597.646 956.098 583.462 878.644 560.66C841.751 549.8 805.462 536.99 769.551 523.249C751.857 516.48 734.257 509.471 716.701 502.354Z" fill="#120F0E"/>
</g>
<defs>
<clipPath id="clip0_15_6733">
<rect width="1920" height="1080" fill="white"/>
</clipPath>
</defs>
</svg>
