<svg xmlns="http://www.w3.org/2000/svg" width="99.983" height="100.182" viewBox="0 0 99.983 100.182">
  <g id="Group_343" data-name="Group 343" transform="translate(-499.178 -12950)">
    <path id="Path_359" data-name="Path 359" d="M535.836,12950a10.016,10.016,0,0,0,0,20.032h10v-10.013a10.015,10.015,0,0,0-10-10.02h0m0,26.715H509.178a10.019,10.019,0,0,0,0,20.037h26.662a10.019,10.019,0,0,0,0-20.037Z" fill="#36c5f0" fill-rule="evenodd"/>
    <path id="Path_360" data-name="Path 360" d="M599.161,12986.731a10,10,0,1,0-20,0v10.021h10A10.01,10.01,0,0,0,599.161,12986.731Zm-26.663,0v-26.716a10,10,0,1,0-19.995,0v26.716a10,10,0,1,0,19.995,0Z" fill="#2eb67d" fill-rule="evenodd"/>
    <path id="Path_361" data-name="Path 361" d="M562.5,13050.182a10.016,10.016,0,0,0,0-20.031h-10v10.016A10.013,10.013,0,0,0,562.5,13050.182Zm0-26.719h26.662a10.018,10.018,0,0,0,0-20.036H562.5a10.018,10.018,0,0,0,0,20.036Z" fill="#ecb22e" fill-rule="evenodd"/>
    <path id="Path_362" data-name="Path 362" d="M499.178,13013.447a10,10,0,1,0,20,0v-10.017h-10A10.009,10.009,0,0,0,499.178,13013.447Zm26.663,0v26.715a10,10,0,1,0,19.995,0v-26.711a10,10,0,1,0-19.995-.008h0" fill="#e01e5a" fill-rule="evenodd"/>
  </g>
</svg>
