<?xml version="1.0" encoding="utf-8"?>
<!-- Generator: Adobe Illustrator 24.0.3, SVG Export Plug-In . SVG Version: 6.00 Build 0)  -->
<svg version="1.1" xmlns="http://www.w3.org/2000/svg" xmlns:xlink="http://www.w3.org/1999/xlink" x="0px" y="0px"
	 viewBox="0 0 450 450" style="enable-background:new 0 0 450 450;" xml:space="preserve">
<style type="text/css">
	.st0{fill:#282832;}
	.st1{fill:none;stroke:#000000;stroke-width:3.6803;stroke-miterlimit:10;}
	.st2{fill:#3081E2;}
	.st3{fill:#FFFFFF;}
	.st4{fill:#1F1F28;}
</style>
<g id="bggg">
</g>
<g id="bg">
	<g id="Layer_2">
	</g>
	<g>
		<path class="st0" d="M414.4,65H35.6C29.7,65,25,69.7,25,75.6v298.9c0,5.8,4.7,10.6,10.6,10.6h18.9c5.8,0,10.6-4.7,10.6-10.6V115.6
			c0-5.8,4.7-10.6,10.6-10.6h298.9c5.8,0,10.6,4.7,10.6,10.6v258.9c0,5.8,4.7,10.6,10.6,10.6h18.9c5.8,0,10.6-4.7,10.6-10.6V75.6
			C425,69.7,420.3,65,414.4,65z"/>
		<path class="st0" d="M334.4,345H155.6c-5.8,0-10.6-4.7-10.6-10.6V195.6c0-5.8,4.7-10.6,10.6-10.6h178.9c5.8,0,10.6-4.7,10.6-10.6
			v-18.9c0-5.8-4.7-10.6-10.6-10.6H115.6c-5.8,0-10.6,4.7-10.6,10.6v218.9c0,5.8,4.7,10.6,10.6,10.6h218.9c5.8,0,10.6-4.7,10.6-10.6
			v-18.9C345,349.7,340.3,345,334.4,345z"/>
		<path class="st2" d="M195.6,305h18.9c5.8,0,10.6-4.7,10.6-10.6v-18.9c0-5.8,4.7-10.6,10.6-10.6h98.9c5.8,0,10.6-4.7,10.6-10.6
			v-18.9c0-5.8-4.7-10.6-10.6-10.6H195.6c-5.8,0-10.6,4.7-10.6,10.6v58.9C185,300.3,189.7,305,195.6,305z"/>
	</g>
</g>
</svg>
