<svg width="2500" height="2500" viewBox="0 0 2500 2500" fill="none" xmlns="http://www.w3.org/2000/svg">
<g clip-path="url(#clip0_203_19)">
<path d="M1250 2500C1940.36 2500 2500 1940.36 2500 1250C2500 559.644 1940.36 0 1250 0C559.644 0 0 559.644 0 1250C0 1940.36 559.644 2500 1250 2500Z" fill="white"/>
<path d="M616.7 1292L622.1 1283.52L947.25 774.824C948.331 773.139 949.847 771.777 951.638 770.882C953.428 769.986 955.427 769.591 957.424 769.737C959.42 769.883 961.341 770.565 962.982 771.711C964.624 772.857 965.925 774.425 966.75 776.249C1021.07 897.999 1067.95 1049.4 1046 1143.67C1036.63 1182.45 1010.95 1234.97 982.05 1283.52C978.3 1290.6 974.2 1297.52 969.85 1304.2C968.83 1305.71 967.452 1306.95 965.838 1307.8C964.224 1308.65 962.424 1309.09 960.6 1309.07H626.2C617.2 1309.07 611.95 1299.32 616.7 1292Z" fill="#F30706"/>
<path d="M2066.1 1386.52V1467.02C2066.1 1471.67 2063.27 1475.78 2059.17 1477.58C2034 1488.38 1947.83 1527.93 1912 1577.75C1820.55 1705 1750.7 1887 1594.52 1887H943.025C712.125 1887 525 1699.25 525 1467.55V1460.12C525 1453.95 530 1448.95 536.175 1448.95H899.375C906.55 1448.95 911.825 1455.62 911.175 1462.7C908.618 1486.71 913.128 1510.94 924.15 1532.43C934.71 1553.79 951.033 1571.77 971.275 1584.34C991.517 1596.91 1014.87 1603.58 1038.7 1603.57H1218.5V1463.2H1040.75C1038.67 1463.17 1036.63 1462.58 1034.87 1461.49C1033.1 1460.39 1031.66 1458.84 1030.71 1456.98C1029.76 1455.13 1029.33 1453.06 1029.47 1450.98C1029.61 1448.91 1030.31 1446.91 1031.5 1445.2C1033.45 1442.25 1035.62 1439.2 1037.92 1435.7C1061.12 1402.32 1082.72 1367.86 1102.67 1332.45C1118.97 1303.95 1134.77 1273.5 1147.47 1242.95C1150.05 1237.42 1152.1 1231.77 1154.15 1226.25C1157.63 1216.5 1161.22 1207.38 1163.8 1198.25C1166.35 1190.55 1168.43 1182.45 1170.48 1174.87C1176.5 1148.92 1179.07 1121.45 1179.07 1092.95C1179.07 1081.77 1178.58 1070.07 1177.53 1058.9C1177.03 1046.7 1175.48 1034.5 1173.93 1022.3C1172.73 1011.36 1171.06 1000.47 1168.92 989.675C1166.25 973.262 1162.83 956.978 1158.68 940.875L1157.25 934.725C1154.15 923.55 1151.6 912.9 1148 901.725C1138.06 867.518 1126.66 833.754 1113.83 800.525C1109.33 787.8 1104.2 775.6 1099.08 763.4C1091.5 745.025 1083.78 728.35 1076.73 712.55C1073.13 705.35 1070.05 698.8 1066.98 692.125C1063.55 684.614 1059.99 677.163 1056.3 669.775C1053.72 664.275 1050.78 659.125 1048.73 653.975L1026.75 613.4C1026.06 612.172 1025.75 610.769 1025.86 609.365C1025.96 607.961 1026.48 606.62 1027.35 605.509C1028.21 604.399 1029.38 603.568 1030.72 603.122C1032.05 602.675 1033.49 602.633 1034.85 603L1172.27 640.25H1172.65C1172.9 640.25 1173.05 640.375 1173.15 640.375L1191.28 645.375L1211.17 651.025L1218.5 653.075V571.4C1218.5 531.975 1250.1 500 1289.12 500C1308.65 500 1326.37 507.95 1339.1 520.925C1351.8 533.925 1359.77 551.625 1359.77 571.425V692.65L1374.4 696.75C1375.6 697.125 1376.73 697.69 1377.75 698.425C1381.35 701.125 1386.5 705.1 1393.03 709.975C1398.18 714.075 1403.7 719.1 1410.38 724.225C1423.6 734.9 1439.38 748.625 1456.73 764.425C1461.35 768.425 1465.85 772.525 1469.97 776.625C1494.86 799.531 1518.64 823.617 1541.22 848.8C1547.92 856.375 1554.47 864.075 1561.15 872.175C1567.82 880.4 1574.9 888.475 1581.05 896.575C1589.15 907.375 1597.88 918.55 1605.45 930.225C1609.05 935.75 1613.15 941.4 1616.63 946.925C1626.38 961.675 1634.97 976.975 1643.2 992.25C1646.67 999.325 1650.28 1007.02 1653.35 1014.6C1662.48 1035.02 1669.65 1055.85 1674.28 1076.62C1675.7 1081.12 1676.72 1086 1677.22 1090.38V1091.4C1678.77 1097.57 1679.3 1104.12 1679.8 1110.8C1681.93 1132.22 1680.72 1153.83 1676.2 1174.87C1674.21 1183.97 1671.68 1192.93 1668.63 1201.73C1665.55 1210.48 1662.47 1219.57 1658.47 1228.17C1650.74 1246.37 1641.5 1263.9 1630.88 1280.57C1627.4 1286.72 1623.3 1293.28 1619.17 1299.45C1614.67 1306 1610.07 1312.18 1605.95 1318.2C1600.3 1325.9 1594.27 1334 1588.1 1341.2C1582.6 1348.77 1576.93 1356.35 1570.78 1363.02C1562.52 1372.89 1554.05 1382.55 1545.35 1392.02C1540.2 1398.07 1534.67 1404.25 1529.02 1409.77C1523.52 1415.92 1517.85 1421.45 1512.72 1426.6C1504.12 1435.2 1496.93 1441.87 1490.9 1447.4L1476.77 1460.38C1474.67 1462.2 1471.98 1463.2 1469.2 1463.2H1359.75V1603.57H1497.42C1528.13 1603.56 1557.83 1592.58 1581.15 1572.6C1589.25 1565.55 1624.55 1534.98 1666.3 1488.88C1667.7 1487.32 1669.52 1486.2 1671.55 1485.67L2051.82 1375.72C2053.49 1375.26 2055.25 1375.18 2056.95 1375.51C2058.65 1375.83 2060.25 1376.54 2061.63 1377.59C2063.01 1378.63 2064.13 1379.99 2064.9 1381.54C2065.67 1383.09 2066.1 1384.79 2066.1 1386.52Z" fill="#F30706"/>
</g>
<defs>
<clipPath id="clip0_203_19">
<rect width="2500" height="2500" fill="white"/>
</clipPath>
</defs>
</svg>
