<svg width="37" height="30" viewBox="0 0 37 30" fill="none" xmlns="http://www.w3.org/2000/svg">
<path d="M11.6345 30C25.5985 30 33.2348 18.4593 33.2348 8.45198C33.2348 8.1241 33.2263 7.79748 33.2136 7.47297C34.696 6.40396 35.9835 5.06998 37 3.55181C35.6405 4.15435 34.175 4.56087 32.6419 4.74382C34.2089 3.80664 35.4118 2.32268 35.9793 0.554372C34.5096 1.42226 32.8875 2.05309 31.1595 2.39281C29.7703 0.9207 27.8008 5.58794e-07 25.6154 5.58794e-07C21.4224 5.58794e-07 18.0256 3.39168 18.0256 7.57266C18.0256 8.16717 18.0892 8.74521 18.2205 9.29957C11.9098 8.98309 6.31913 5.96958 2.57508 1.38719C1.92284 2.50564 1.5459 3.80663 1.5459 5.19339C1.5459 7.82113 2.88427 10.1404 4.9257 11.4976C3.68051 11.4592 2.50731 11.1177 1.48659 10.5498C1.48236 10.5815 1.48237 10.6132 1.48237 10.6466C1.48237 14.3146 4.09981 17.3768 7.5728 18.0714C6.93749 18.2442 6.26407 18.3376 5.5737 18.3376C5.0824 18.3376 4.60804 18.2894 4.14638 18.2011C5.11204 21.21 7.91586 23.3996 11.2364 23.4613C8.64011 25.4924 5.3662 26.7029 1.8085 26.7029C1.19861 26.7029 0.592949 26.6683 0 26.5982C3.35863 28.7459 7.34834 30 11.6345 30Z" fill="#FEFE55"/>
</svg>
