<svg width="40" height="33" viewBox="0 0 40 33" fill="none" xmlns="http://www.w3.org/2000/svg">
<path d="M39.9213 0.71298C39.778 0.290731 39.6069 0.179613 39.3397 0.074051C38.7552 -0.142629 37.7652 0.185169 37.7652 0.185169C37.7652 0.185169 2.71793 12.786 0.715705 14.1805C0.284593 14.4805 0.140153 14.6583 0.0684867 14.8639C-0.277625 15.8528 0.800706 16.2917 0.800706 16.2917L9.83406 19.2364C9.83406 19.2364 10.1707 19.2864 10.2907 19.2086C12.3457 17.9085 30.9663 6.15221 32.0402 5.75774C32.2097 5.70774 32.3352 5.7633 32.3019 5.87997C31.8719 7.39118 15.6991 21.7643 15.6991 21.7643C15.6991 21.7643 15.6374 21.8421 15.5985 21.931L15.5774 21.9199L14.7346 30.8815C14.7346 30.8815 14.3813 33.6262 17.1263 30.8815C19.063 28.9425 20.9369 27.3202 21.8746 26.5368C24.9807 28.6814 28.3235 31.0538 29.7663 32.2927C30.4907 32.915 31.0969 33.015 31.5958 32.9983C32.9652 32.9483 33.3474 31.4427 33.3474 31.4427C33.3474 31.4427 39.7341 5.73552 39.9474 2.29086C39.9685 1.95195 39.9974 1.74082 39.9997 1.50747C40.0036 1.18523 39.9735 0.862989 39.9213 0.71298Z" fill="#FEFE55"/>
</svg>
