<svg width="2172" height="2498" viewBox="0 0 2172 2498" fill="none" xmlns="http://www.w3.org/2000/svg">
<path fill-rule="evenodd" clip-rule="evenodd" d="M807.625 141.676C658.86 219.171 537.15 284.747 537.176 287.414C537.242 294.298 894.216 475.083 906.887 474.643C912.65 474.45 954.461 455.204 999.794 431.879L1082.23 389.478L1172.26 435.756L1262.29 482.042L1409.73 415.792C1631.89 315.963 1654.96 305.024 1651.34 301.349C1646.55 296.472 1566.86 253.665 1350.67 139.85C1246.19 84.8413 1144.79 30.9074 1125.32 19.9939C1105.85 9.08043 1087.27 0.301238 1084.02 0.471176C1080.78 0.641115 956.394 64.1837 807.625 141.676ZM155.142 479.554L0.27939 559.546V910.616C0.27939 1103.71 2.31289 1261.68 4.80724 1261.68C7.29295 1261.68 83.4859 1228.65 174.121 1188.29L338.912 1114.89V744.839L419.44 788.712C481.493 822.489 543.584 856.198 605.713 889.837L711.455 947.089L758.508 925.812C788.017 912.447 817.468 898.952 846.858 885.327C869.569 874.75 925.321 849.639 970.746 829.515C1016.17 809.381 1058.22 789.136 1064.18 784.521C1072.1 778.392 975.522 725.02 706.953 587.105C504.51 483.145 332.38 398.418 324.441 398.824C316.503 399.23 240.319 435.554 155.142 479.554ZM1679.25 502.017C1573.78 549.632 1487.41 590.492 1487.32 592.822C1487.22 595.149 1544.71 629.33 1615.07 668.767C1685.42 708.213 1742.99 742.595 1742.99 745.185C1742.99 747.768 1680.73 777.934 1604.65 812.233C1528.55 846.523 1336.22 933.382 1177.23 1005.25L644.505 1246.05C510.498 1306.63 389.706 1361.23 376.08 1367.41C102.363 1491.32 27.1297 1525.7 16.798 1531.6C6.4087 1537.54 4.05548 1572.06 2.20632 1745.32L0 1951.97L138.485 2022.53L276.968 2093.09L468.996 2006.43C574.614 1958.76 661.023 1917.27 661.023 1914.21C661.023 1911.17 641.506 1898.45 617.663 1885.94C593.808 1873.44 544.566 1845.75 508.226 1824.41C471.887 1803.06 435.653 1783.48 427.698 1780.88C419.745 1778.29 413.354 1773.76 413.483 1770.81C413.616 1767.86 498.176 1727.69 601.384 1681.54C801.845 1591.92 955.253 1522.84 1284.6 1373.9C1431.87 1307.31 1579.16 1240.77 1726.47 1174.27C1855.94 1115.83 2006.46 1047.58 2060.97 1022.6L2160.09 977.188L2162.29 768.19L2164.5 559.2L2024.05 487.106C1946.79 447.458 1880.76 415.115 1877.29 415.233C1873.83 415.343 1784.72 454.391 1679.25 502.017ZM2122.45 1256C2101.76 1266.11 2060.87 1285.04 2031.6 1298.06C2002.33 1311.09 1946.79 1336.15 1908.18 1353.77L1837.97 1385.79L1836.37 1569.27C1835.49 1670.18 1831.77 1752.3 1828.11 1751.77C1819.8 1750.53 1688.22 1683.05 1555.96 1612.18C1460.5 1561.03 1454.5 1559 1432.07 1570.11C1419.1 1576.53 1341.59 1611.29 1259.82 1647.37C1178.05 1683.44 1108.49 1715.31 1105.22 1718.19C1101.95 1721.08 1266.52 1810.27 1470.93 1916.42L1842.57 2109.4L2001.33 2027.28C2088.64 1982.12 2162.88 1940.92 2166.3 1935.74C2174 1924.09 2173.34 1236.02 2165.64 1236.95C2162.59 1237.32 2143.15 1245.89 2122.45 1256ZM1243.3 2063.62C1215.77 2075.46 1188.24 2087.31 1160.71 2099.19C1077.6 2135.14 1093.89 2136.34 995.004 2087.11C929.146 2054.33 900.757 2044.21 888.436 2049.12C879.193 2052.8 799.647 2088.59 711.653 2128.65C623.666 2168.7 548.622 2201.48 544.889 2201.48C507.972 2201.48 569.346 2238.15 806.174 2357.61L1083.92 2497.7L1200.78 2440.01C1265.05 2408.27 1394.69 2344.73 1488.87 2298.8C1583.04 2252.86 1658.93 2214.08 1657.51 2212.62C1656.08 2211.16 1577.17 2170.64 1482.15 2122.58L1309.38 2035.19L1243.3 2063.62Z" fill="white"/>
</svg>
